<svg id="Layer_1" data-name="Layer 1" xmlns="http://www.w3.org/2000/svg" xmlns:xlink="http://www.w3.org/1999/xlink" viewBox="0 0 186.45 44.91"><defs><style>.cls-1{fill:none;}.cls-2{stroke:#231f20;stroke-miterlimit:10;stroke-width:0.63px;}.cls-3{clip-path:url(#clip-path);}.cls-4{fill:url(#linear-gradient);}.cls-5{clip-path:url(#clip-path-2);}.cls-6{fill:url(#linear-gradient-2);}.cls-7{clip-path:url(#clip-path-3);}.cls-8{fill:url(#linear-gradient-3);}.cls-9{clip-path:url(#clip-path-4);}.cls-10{fill:url(#linear-gradient-4);}.cls-11{clip-path:url(#clip-path-5);}.cls-12{fill:url(#linear-gradient-5);}.cls-13{clip-path:url(#clip-path-6);}.cls-14{fill:url(#linear-gradient-6);}</style><clipPath id="clip-path" transform="translate(-2.1 9.97)"><polygon class="cls-1" points="14.21 6.31 12.44 6.31 12.18 6.31 12.18 18.53 14.47 18.53 14.47 18.28 14.47 16.8 14.47 16.14 14.47 6.57 14.47 6.31 14.21 6.31"/></clipPath><linearGradient id="linear-gradient" x1="-54.87" y1="-103.77" x2="-54.08" y2="-103.77" gradientTransform="matrix(0, -0.62, -0.62, 0, -52.73, -11.16)" gradientUnits="userSpaceOnUse"><stop offset="0" stop-color="#cd181e"/><stop offset="1" stop-color="#001223"/></linearGradient><clipPath id="clip-path-2" transform="translate(-2.1 9.97)"><path class="cls-1" d="M7,18.81a8.94,8.94,0,1,1,6.33,2.62A8.92,8.92,0,0,1,7,18.81M5.39,4.54a11.24,11.24,0,1,0,7.94-3.28A11.22,11.22,0,0,0,5.39,4.54"/></clipPath><linearGradient id="linear-gradient-2" x1="-117.77" y1="5.23" x2="-116.98" y2="5.23" gradientTransform="matrix(0, -1.13, -1.13, 0, 17.15, -110.46)" xlink:href="#linear-gradient"/><clipPath id="clip-path-3" transform="translate(-2.1 9.97)"><path class="cls-1" d="M40.92,6.37a6.69,6.69,0,0,0-2.16,1.47,6.44,6.44,0,0,0,0,9.29,6.56,6.56,0,0,0,6.36,1.74,6.52,6.52,0,0,0,4.3-3.67H46.68a.93.93,0,0,1-.24.3,4.58,4.58,0,0,1-.9.67h0a4.38,4.38,0,0,1-1,.43,4.32,4.32,0,0,1-1.08.14,4.13,4.13,0,0,1-3-1.26,4.32,4.32,0,0,1-1-1.38,4.39,4.39,0,0,1,0-3.24,4.32,4.32,0,0,1,1-1.38,4.37,4.37,0,0,1,1.4-.94,4.21,4.21,0,0,1,1.64-.32,4.32,4.32,0,0,1,1.08.14,4,4,0,0,1,1,.44h0a4.58,4.58,0,0,1,.9.67.84.84,0,0,1,.24.3h2.74a6.5,6.5,0,0,0-4.3-3.67,6.2,6.2,0,0,0-1.66-.22,6.46,6.46,0,0,0-2.54.49M37.05,18.81a8.93,8.93,0,1,1,6.32,2.62,8.92,8.92,0,0,1-6.32-2.62M35.43,4.54a11.3,11.3,0,0,0-2.56,11.93,11.45,11.45,0,0,0,2.56,4,11.22,11.22,0,1,0,0-15.88"/></clipPath><linearGradient id="linear-gradient-3" x1="-164.41" y1="252.14" x2="-163.62" y2="252.14" gradientTransform="matrix(0, 1.62, 1.62, 0, -365.05, 278.05)" xlink:href="#linear-gradient"/><clipPath id="clip-path-4" transform="translate(-2.1 9.97)"><path class="cls-1" d="M70.46,8.64h4.39a1.33,1.33,0,0,1,.54.1,1.57,1.57,0,0,1,.47.32h0a1.53,1.53,0,0,1,.32.46,1.56,1.56,0,0,1,0,1.1,1.67,1.67,0,0,1-.32.46h0a1.57,1.57,0,0,1-.47.32,1.33,1.33,0,0,1-.54.1H70.46Zm-2-2.32h-.28v12.2h2.32v-4.7h2.79L76,18.52h2.68l-2.8-4.83a3.71,3.71,0,0,0,.85-.35,3.84,3.84,0,0,0,1-.85h0a3.44,3.44,0,0,0,.68-1.12,3.52,3.52,0,0,0,.23-1.3,3.61,3.61,0,0,0-1.11-2.63h0a3.88,3.88,0,0,0-1.21-.84,3.8,3.8,0,0,0-1.43-.28Z"/></clipPath><linearGradient id="linear-gradient-4" x1="-461.84" y1="-20.72" x2="-461.05" y2="-20.72" gradientTransform="matrix(-0.53, 0, 0, 0.53, -173.14, 33.37)" xlink:href="#linear-gradient"/><clipPath id="clip-path-5" transform="translate(-2.1 9.97)"><path class="cls-1" d="M67.07,18.81a8.94,8.94,0,1,1,6.32,2.62,8.92,8.92,0,0,1-6.32-2.62M65.45,4.54a11.3,11.3,0,0,0-2.56,11.93,11.45,11.45,0,0,0,2.56,4,11.22,11.22,0,1,0,0-15.88"/></clipPath><linearGradient id="linear-gradient-5" x1="-318.66" y1="69.74" x2="-317.87" y2="69.74" gradientTransform="matrix(-1.13, 0, 0, 1.13, -289.23, -56.55)" xlink:href="#linear-gradient"/><clipPath id="clip-path-6" transform="translate(-2.1 9.97)"><polygon class="cls-1" points="101.22 21.95 101.22 16.2 109.48 16.2 109.48 21.95 112.88 21.95 112.88 16.2 112.88 16.2 112.88 12.8 101.22 12.8 101.22 3.07 97.83 3.07 97.83 21.95 101.22 21.95"/></clipPath><linearGradient id="linear-gradient-6" x1="-339.75" y1="65.41" x2="-338.64" y2="65.41" gradientTransform="matrix(-1.13, 0, 0, 1.13, -289.23, -56.55)" xlink:href="#linear-gradient"/></defs><title>logo</title><path class="cls-2" d="M121.71,12.75a9.68,9.68,0,0,1,2.39-7,8.12,8.12,0,0,1,6.16-2.51,8.51,8.51,0,0,1,4.45,1.18,7.71,7.71,0,0,1,3,3.29,10.77,10.77,0,0,1,1,4.79,10.54,10.54,0,0,1-1.1,4.86,7.5,7.5,0,0,1-3.1,3.25,8.94,8.94,0,0,1-4.34,1.1,8.43,8.43,0,0,1-4.5-1.22,7.85,7.85,0,0,1-3-3.32A10.12,10.12,0,0,1,121.71,12.75Zm2.43,0a7.13,7.13,0,0,0,1.74,5.08,6,6,0,0,0,8.74,0,7.57,7.57,0,0,0,1.72-5.32,9.14,9.14,0,0,0-.73-3.8,5.57,5.57,0,0,0-2.16-2.52,5.78,5.78,0,0,0-3.18-.9A6.09,6.09,0,0,0,126,7C124.75,8.18,124.14,10.1,124.14,12.79Z" transform="translate(-2.1 9.97)"/><path class="cls-2" d="M147.89,21.44V3.59h3.55l4.23,12.64c.39,1.18.67,2.06.85,2.64.2-.64.52-1.6.95-2.86l4.27-12.42h3.18V21.44h-2.28V6.5l-5.18,14.94h-2.14L150.16,6.25V21.44Z" transform="translate(-2.1 9.97)"/><path class="cls-2" d="M174.92,21.44V3.59h12.9V5.7H177.28v5.47h9.87v2.09h-9.87v6.08h11v2.1Z" transform="translate(-2.1 9.97)"/><polygon points="110.77 18.56 110.77 13.04 107.38 13.04 107.38 21.95 110.77 21.95 110.77 18.56 110.77 18.56"/><g class="cls-3"><rect class="cls-4" x="10.08" y="16.28" width="2.3" height="12.22"/></g><g class="cls-5"><rect class="cls-6" y="11.23" width="22.45" height="22.45"/></g><g class="cls-7"><rect class="cls-8" x="27.5" y="-3.39" width="31.75" height="31.75" transform="translate(1.78 44.29) rotate(-45)"/></g><g class="cls-9"><rect class="cls-10" x="66.04" y="16.29" width="10.5" height="12.2"/></g><g class="cls-11"><rect class="cls-12" x="60.07" y="11.23" width="22.45" height="22.45"/></g><g class="cls-13"><rect class="cls-14" x="79.33" y="1.87" width="31.36" height="31.36"/></g></svg>