<?xml version="1.0" encoding="utf-8"?>
<!-- Generator: Adobe Illustrator 23.0.0, SVG Export Plug-In . SVG Version: 6.00 Build 0)  -->
<svg version="1.1" id="Layer_1" xmlns="http://www.w3.org/2000/svg" xmlns:xlink="http://www.w3.org/1999/xlink" x="0px" y="0px"
	 viewBox="0 0 315 160" style="enable-background:new 0 0 315 160;" xml:space="preserve">
<style type="text/css">
	.st0{fill:none;stroke:#E4E4E4;stroke-width:2;}
	.st1{fill-rule:evenodd;clip-rule:evenodd;fill:#231F20;}
	.st2{fill-rule:evenodd;clip-rule:evenodd;fill:#EC1D24;}
</style>
<title>Kare</title>
<g id="Symbols">
	<g id="Network-logos-Active" transform="translate(-803.000000, -40.000000)">
		<g id="Kare" transform="translate(803.000000, 40.000000)">
			<path id="Rectangle-Copy-2" class="st0" d="M9,1h297c4.4,0,8,3.6,8,8v142c0,4.4-3.6,8-8,8H9c-4.4,0-8-3.6-8-8V9C1,4.6,4.6,1,9,1z
				"/>
			<g id="Group-32" transform="translate(85.000000, 59.000000)">
				<g id="Group-3">
					<g id="Clip-2">
					</g>
					<path id="Fill-1" class="st1" d="M20.8,0.1c0,0-8.7,8.2-9.2,8.7h-1.2V0.1H0v26.7h10.4v-9.1h1.1c0.5,0.4,8.5,9.1,8.5,9.1h14
						c0,0-11.8-12.4-13.2-13.6c1.4-1.3,14.5-13,14.5-13H20.8V0.1z"/>
				</g>
				<polygon id="Fill-4" class="st2" points="2,2 9.1,2 9.1,10.8 12.4,10.8 21.4,2 31,2 18.5,13.7 30.3,26 20.5,26 12.2,16.8 
					9.1,16.8 9.1,26 2,26 				"/>
				<path id="Fill-6" class="st1" d="M54.8,10.5c0.4,0.7,1.5,2.8,2.1,4h-4.2C53.4,13.2,54.2,11.7,54.8,10.5L54.8,10.5z M49.2,0
					L35,27h11.4c0,0,1.7-3.4,2.1-4.2h12.7c0.4,0.8,2.2,4.2,2.2,4.2H75L60.4,0H49.2z"/>
				<path id="Fill-8" class="st2" d="M49.8,16.6H59l-4.7-9L49.8,16.6z M49.7,2h9.4L72,26h-8l-2.2-4.2H47.2L45,26h-8L49.7,2z"/>
				<path id="Fill-10" class="st1" d="M97.1,9.1c1.8,0,1.8,0.1,1.8,0.9v0.8c0,0.8,0,0.9-1.1,0.9H87.3V9.1H97.1z M77,0v27h10.3v-6.2
					h9.8c1.3,0,1.4,0,1.4,1.8V27h10.3v-5.6c0-2.5-0.6-4.2-1.9-5.4c1.7-1.5,2-3.8,2-5.9V8.7c0-5.8-2.8-8.7-8.6-8.7H77z"/>
				<path id="Fill-12" class="st2" d="M86.3,13.8h12c2,0,2.7-0.8,2.7-2.5v-0.8c0-2.1-1-2.5-3.3-2.5H86.3V13.8z M79,2h21.9
					c5.6,0,7.1,2.8,7.1,7.1v1.5c0,3.2-0.7,5.1-4.1,5.9v0.1c2.2,0.4,4,1.4,4,5.3V26h-7.3v-2.9c0-2.5-0.7-3.3-3-3.3H86.3V26H79V2z"/>
				<polygon id="Fill-14" class="st1" points="115,0 115,27 144,27 144,18.1 125.2,18.1 125.2,17.2 142.6,17.2 142.6,9.6 125.2,9.6 
					125.2,8.7 143.6,8.7 143.6,0 				"/>
				<polygon id="Fill-16" class="st2" points="117,2 142.6,2 142.6,7.6 124.2,7.6 124.2,11.6 141.6,11.6 141.6,16.2 124.2,16.2 
					124.2,20.2 143,20.2 143,26 117,26 				"/>
				<path id="Fill-18" class="st1" d="M6.9,43c-1.2,0-2.2-0.1-3.1-0.4c-0.9-0.2-1.6-0.6-2.1-1c-0.5-0.5-0.9-1-1.2-1.6
					C0.1,39.4,0,38.7,0,38c0-1.4,0.5-2.6,1.6-3.6s2.5-1.5,4.2-1.5c0.7,0,1.4,0.1,1.9,0.2c0.6,0.1,1,0.2,1.5,0.4
					c0.4,0.2,0.8,0.4,1,0.6c0.3,0.2,0.5,0.4,0.8,0.7l-1.1,0.4c-0.4-0.5-1-0.8-1.6-1.1c-0.6-0.2-1.4-0.3-2.3-0.3
					c-0.7,0-1.4,0.1-1.9,0.3c-0.6,0.2-1.1,0.5-1.5,1c-0.4,0.4-0.7,0.9-0.9,1.3c-0.2,0.5-0.3,1-0.3,1.5s0.1,1,0.3,1.5
					s0.5,0.9,0.9,1.4c0.4,0.4,1,0.8,1.7,1C5,42,5.9,42.1,6.9,42.1c1.1,0,2-0.2,2.9-0.7v-2.3H6.3v-0.8H11v3.5
					c-0.3,0.2-0.6,0.4-0.9,0.5c-0.3,0.1-0.7,0.3-1,0.4c-0.4,0.1-0.7,0.2-1.1,0.2C7.6,43,7.2,43,6.9,43"/>
				<polygon id="Fill-20" class="st1" points="24,43 24,33 33,33 33,33.8 25.3,33.8 25.3,37.6 30.5,37.6 30.5,38.4 25.3,38.4 
					25.3,42.1 33,42.1 33,43 				"/>
				<g id="Group-24" transform="translate(45.000000, 32.000000)">
					<g id="Clip-23">
					</g>
					<path id="Fill-22" class="st1" d="M6.8,10.1c0.7,0,1.4-0.1,1.9-0.3C9.3,9.7,9.8,9.4,10.2,9s0.7-0.8,0.9-1.4
						c0.2-0.5,0.3-1.1,0.3-1.8c0-0.6-0.1-1.2-0.3-1.7s-0.5-1-0.9-1.4C9.8,2.4,9.3,2.1,8.7,1.8C8.1,1.6,7.5,1.5,6.8,1.5
						C6.2,1.5,5.6,1.6,5,1.8S3.9,2.3,3.5,2.7C3.1,3,2.7,3.5,2.5,4C2.3,4.6,2.2,5.2,2.2,5.8c0,1.4,0.5,2.4,1.4,3.2
						c0.5,0.4,1,0.6,1.5,0.8C5.7,10,6.2,10.1,6.8,10.1 M6.8,11c-0.8,0-1.5-0.1-2.2-0.4s-1.3-0.6-1.9-1c-0.6-0.5-1.1-1-1.4-1.7
						S0.9,6.6,0.9,5.8c0-0.3,0-0.7,0.1-1s0.2-0.7,0.3-1c0.1-0.3,0.3-0.6,0.5-0.9s0.4-0.6,0.7-0.8C2.7,1.9,3,1.7,3.3,1.5
						S4,1.2,4.4,1.1s0.8-0.2,1.2-0.3C6,0.7,6.4,0.7,6.8,0.7C8.5,0.7,9.9,1.1,11,2c0.6,0.5,1,1,1.3,1.6s0.4,1.4,0.4,2.2
						s-0.1,1.5-0.4,2.1S11.5,9.1,11,9.6c-0.6,0.5-1.2,0.8-1.9,1.1C8.4,10.9,7.6,11,6.8,11"/>
				</g>
				<path id="Fill-25" class="st1" d="M72.3,37.6h2.8c0.4,0,0.7,0,1.1-0.1c0.3-0.1,0.6-0.2,0.9-0.4s0.4-0.4,0.6-0.6
					c0.1-0.2,0.2-0.5,0.2-0.8s-0.1-0.6-0.2-0.8s-0.3-0.4-0.6-0.6c-0.3-0.2-0.6-0.3-0.9-0.4c-0.3-0.1-0.7-0.1-1.2-0.1h-2.7
					C72.3,33.8,72.3,37.6,72.3,37.6z M75,33c0.7,0,1.4,0.1,1.9,0.2c0.5,0.1,0.9,0.3,1.3,0.6c0.3,0.3,0.6,0.5,0.7,0.9
					c0.1,0.3,0.2,0.7,0.2,1.1c0,0.3,0,0.6-0.1,0.8s-0.2,0.4-0.4,0.6c-0.2,0.2-0.4,0.4-0.8,0.5c-0.3,0.2-0.7,0.3-1.1,0.5
					c0.2,0.1,0.4,0.2,0.6,0.3c0.2,0.2,0.3,0.3,0.5,0.5s0.3,0.4,0.4,0.7s0.2,0.5,0.3,0.8c0.2,0.6,0.5,1.1,0.7,1.5
					c0.3,0.4,0.5,0.7,0.8,1h-1.3c-0.1,0-0.2-0.1-0.3-0.3c-0.1-0.1-0.2-0.3-0.3-0.5c-0.1-0.2-0.2-0.4-0.3-0.6
					c-0.1-0.2-0.2-0.5-0.3-0.7c-0.1-0.3-0.3-0.7-0.4-1c-0.2-0.3-0.3-0.6-0.5-0.8s-0.4-0.4-0.6-0.6c-0.2-0.1-0.5-0.2-0.7-0.2h-2.9V43
					H71V33H75z"/>
				<path id="Fill-27" class="st1" d="M100.9,43c-1.2,0-2.2-0.1-3.1-0.4c-0.9-0.2-1.6-0.6-2.1-1c-0.5-0.5-0.9-1-1.2-1.6
					c-0.3-0.6-0.4-1.3-0.4-2c0-1.4,0.5-2.6,1.6-3.6s2.5-1.5,4.2-1.5c0.7,0,1.4,0.1,1.9,0.2c0.6,0.1,1,0.2,1.5,0.4
					c0.4,0.2,0.8,0.4,1,0.6c0.3,0.2,0.5,0.4,0.8,0.7l-1.1,0.4c-0.4-0.5-1-0.8-1.6-1.1c-0.6-0.2-1.4-0.3-2.3-0.3
					c-0.7,0-1.4,0.1-1.9,0.3c-0.6,0.2-1.1,0.5-1.5,1c-0.4,0.4-0.7,0.9-0.9,1.3c-0.2,0.5-0.3,1-0.3,1.5s0.1,1,0.3,1.5
					c0.2,0.5,0.5,0.9,0.9,1.4c0.4,0.4,1,0.8,1.7,1s1.6,0.3,2.6,0.3c1.1,0,2-0.2,2.9-0.7v-2.3h-3.4v-0.8h4.7v3.5
					c-0.3,0.2-0.6,0.4-0.9,0.5s-0.7,0.3-1,0.4c-0.4,0.1-0.7,0.2-1.1,0.2C101.6,43,101.2,43,100.9,43"/>
				<g id="Clip-30">
				</g>
				<polygon id="Fill-29" class="st1" points="118.1,43 119.9,43 119.9,33 118.1,33 				"/>
				<path id="Fill-31" class="st1" d="M135.4,39.4h6.3l-3.2-5.5L135.4,39.4z M132,43l5.8-10h1.4l5.8,10h-1.3l-1.6-2.8h-7.2l-1.6,2.8
					H132z"/>
			</g>
		</g>
	</g>
</g>
</svg>
