<?xml version="1.0" encoding="utf-8"?>
<!-- Generator: Adobe Illustrator 23.0.0, SVG Export Plug-In . SVG Version: 6.00 Build 0)  -->
<svg version="1.1" id="Layer_1" xmlns="http://www.w3.org/2000/svg" xmlns:xlink="http://www.w3.org/1999/xlink" x="0px" y="0px"
	 viewBox="0 0 315 160" style="enable-background:new 0 0 315 160;" xml:space="preserve">
<style type="text/css">
	.st0{fill:none;stroke:#E4E4E4;stroke-width:2;}
	.st1{fill-rule:evenodd;clip-rule:evenodd;fill:#231F20;}
	.st2{fill-rule:evenodd;clip-rule:evenodd;fill:#ED1B23;}
</style>
<title>Laboratory my home</title>
<g id="Symbols">
	<g id="Network-logos-Active" transform="translate(-110.000000, -40.000000)">
		<g id="Laboratory-my-home" transform="translate(110.000000, 40.000000)">
			<path id="Rectangle" class="st0" d="M9,1h297c4.4,0,8,3.6,8,8v142c0,4.4-3.6,8-8,8H9c-4.4,0-8-3.6-8-8V9C1,4.6,4.6,1,9,1z"/>
			<g id="Group-18" transform="translate(84.000000, 50.000000)">
				<g id="Group-3" transform="translate(56.000000, 42.000000)">
					<g id="Clip-2">
					</g>
					<path id="Fill-1" class="st1" d="M15.6,0.2V19h-4.3V6.3L9.6,19h-3L4.8,6.6V19H0.5V0.2h6.3c0.2,1.1,0.4,2.5,0.6,4L8.1,9l1.1-8.8
						C9.2,0.2,15.6,0.2,15.6,0.2z"/>
				</g>
				<g id="Group-6" transform="translate(72.000000, 42.000000)">
					<g id="Clip-5">
					</g>
					<path id="Fill-4" class="st1" d="M11.9,0.2l-3.5,12V19H4v-6.8l-3.4-12H5c0.7,3.7,1.1,6.1,1.2,7.4c0.3-2,0.7-4.5,1.3-7.4
						C7.5,0.2,11.9,0.2,11.9,0.2z"/>
				</g>
				<g id="Group-9" transform="translate(123.000000, 42.000000)">
					<g id="Clip-8">
					</g>
					<path id="Fill-7" class="st2" d="M15.5,0.2V19h-4.2V6.3L9.6,19h-3L4.9,6.6V19H0.7V0.2h6.2c0.2,1.1,0.4,2.5,0.6,4L8.1,9l1.1-8.8
						C9.2,0.2,15.5,0.2,15.5,0.2z M16.7,0.2h8V4h-3.2v3.6h3v3.6h-3v4.1H25V19h-8.3V0.2z"/>
				</g>
				<g id="Group-12" transform="translate(89.000000, 42.000000)">
					<g id="Clip-11">
					</g>
					<polygon id="Fill-10" class="st2" points="11.3,0.2 11.3,19 6.5,19 6.5,11.1 5.1,11.1 5.1,19 0.3,19 0.3,0.2 5.1,0.2 5.1,6.9 
						6.5,6.9 6.5,0.2 					"/>
				</g>
				<g id="Group-15">
					<g id="Clip-14">
					</g>
					<path id="Fill-13" class="st1" d="M108.8,6.4c3.2,0,5.5,1.4,6.1,4.7c0.2,1,0.3,2,0.3,3.1v11.1c0,4.6-1.2,7.8-6.4,7.8h-1.5
						c-5.2,0-6.6-3.1-6.6-7.8V14.2c0-4.6,1.4-7.8,6.6-7.8C107.3,6.4,108.8,6.4,108.8,6.4z M110.8,14.3c0-2.2-0.3-3.9-2.8-3.9
						c-2.6,0-2.8,1.7-2.8,3.9v11c0,2.1,0.3,3.8,2.8,3.8s2.8-1.7,2.8-3.8V14.3z M50.6,0.2c3.2,0,5.5,1.4,6.1,4.7c0.2,1,0.3,2,0.3,3.1
						v17.3c0,4.6-1.2,7.8-6.4,7.8H49c-5.3,0-6.6-3.2-6.6-7.8V8c0-4.6,1.4-7.8,6.6-7.8C49,0.2,50.6,0.2,50.6,0.2z M52.6,8
						c0-2.2-0.3-3.9-2.8-3.9S47,5.9,47,8v17.2c0,2.1,0.3,3.8,2.8,3.8s2.8-1.7,2.8-3.8V8z M25.2,33.1V4.8V2.1l0,0V0.2h10.7
						c2.3,0,3.8,0.7,4.3,2s0.2,3.3-1,5.8c-0.5,1.1-1.1,2.1-1.7,3.2c-0.6,1.1-1.2,2.2-1.9,3.3c0.9,1.8,1.8,3.6,2.6,5.4
						s1.6,3.6,2.1,5.4c0.8,2.6,0.8,4.5,0.1,5.8s-2.3,2-4.6,2H25.2z M32.8,18.8c-1.1,1.6-2.2,3.2-3.2,4.9v5.4h3.2
						c0.9,0,1.6-0.1,2.2-0.2c0.5-0.2,0.9-0.4,1.1-0.8c0.2-0.4,0.2-0.9,0-1.6S35.6,25,35.2,24c-0.4-0.9-0.8-1.8-1.2-2.7
						C33.5,20.5,33.2,19.7,32.8,18.8L32.8,18.8z M29.6,4.2v12c0.6-1,1.3-2.1,2-3.2c0.7-1.1,1.4-2.4,2.2-3.7c0.6-1,1-1.8,1.3-2.5
						s0.3-1.2,0.2-1.6s-0.4-0.7-1-0.8c-0.5-0.2-1.2-0.2-2.1-0.2C32.2,4.2,29.6,4.2,29.6,4.2z M66.6,18.9c-0.5,0.8-1.1,1.6-1.6,2.4
						s-1.1,1.6-1.5,2.3V33H59V2l0,0V0.2h10.7c2.3,0,3.7,0.7,4.3,2c0.5,1.3,0.2,3.3-1,5.8c-0.5,1.1-1.1,2.2-1.6,3.2
						c-0.6,1.1-1.2,2.2-1.9,3.3c0.8,2.2,1.6,4.6,2.4,7.4c0.9,3.2,2,7.9,2.3,11.2h-4.4C69.7,29.1,67.9,22.8,66.6,18.9L66.6,18.9z
						 M63.4,4.2v12l4.2-6.8c0.6-1,1-1.8,1.3-2.5s0.3-1.2,0.2-1.6c-0.1-0.4-0.4-0.7-0.9-0.8C67.7,4.2,67,4.2,66,4.2H63.4z M76.2,0.2
						H83c5.8,9,9.1,22.3,7.8,32.9h-4.5c0.4-2.5,0.4-4.9,0.2-7.4h-5.9v7.4h-4.4V0.2z M86.1,21.7c-0.8-5.1-2.4-12.2-5.5-16.2v16.2
						H86.1z M12.7,21v0.7v5.1H8.2V0.2H15c5.8,9,9.1,22.3,7.8,32.9h-4.5c0.3-1.9,0.4-3.8,0.3-5.7c0-2.1-0.2-4.4-0.6-6.4
						C18,21,12.7,21,12.7,21z M17.3,17c-0.9-4.2-2.4-8.6-4.6-11.5V17H17.3z M94,4.2v24.3v2.8l0,0v1.9h4.4v-1.9l0,0v-3.6V4.2h16.3
						l-1-4H88.5l-1.1,4H94z M125,18.9c-0.5,0.8-1.1,1.6-1.6,2.4s-1.1,1.6-1.5,2.3V33h-4.4V2l0,0V0.2h10.7c2.3,0,3.7,0.7,4.3,2
						c0.5,1.3,0.2,3.3-1,5.8c-0.5,1.1-1.1,2.2-1.6,3.2c-0.6,1.1-1.2,2.2-1.9,3.3c0.8,2.2,1.6,4.6,2.4,7.4c0.9,3.2,2,7.9,2.3,11.2
						h-4.4C128.1,29.1,126.4,22.8,125,18.9L125,18.9z M121.9,4.2v12l4.2-6.8c0.6-1,1-1.8,1.3-2.5s0.3-1.2,0.2-1.6
						c-0.1-0.4-0.4-0.7-0.9-0.8c-0.5-0.2-1.2-0.2-2.1-0.2h-2.7V4.2z M0,0.2h4.4v28.9h11.9l-1.1,4H0V0.2z M138.5,16.3
						c-1.1-2.3-2.1-4.6-2.8-7c-0.9-2.7-1.8-6.4-2-9.3h4.2c0.1,2.9,1.7,8.7,3,11.7c1.3-2.9,2.9-8.8,3-11.7h4.2
						c-0.2,2.8-1.1,6.6-2,9.3c-0.8,2.4-1.7,4.7-2.8,7v16.6H141h-2.3V16.3H138.5z"/>
				</g>
				<path id="Fill-16" class="st1" d="M119.2,42.1c-0.6-0.8-1.4-1.4-2.2-2V40l-3.6,4.7c-0.1-0.1-0.2-0.2-0.3-0.3
					c-1.4-1.3-3.2-1.9-4.9-1.8c-1.7,0.1-3.4,0.9-4.7,2.2c-0.1,0.1-0.2,0.2-0.3,0.3c-1.6,1.8-2.3,4.1-2.1,6.4
					c0.1,2.3,1.1,4.7,2.8,6.4c2,2,4.7,3,7.3,3.1c2.7,0,5.3-1,7.3-2.9c2.1-2.1,3.4-5,3.6-8C122.1,47.4,121.3,44.5,119.2,42.1
					 M113.6,53.8c-0.1,0.1-0.1,0.1-0.2,0.2c-0.9,0.9-2.1,1.5-3.3,1.5c-1.2,0.1-2.4-0.3-3.4-1.2c-0.1-0.1-0.1-0.1-0.2-0.2
					c-0.9-0.9-1.3-2-1.4-3.2c-0.1-2.2,1.3-4.3,3.6-4.4c0.9,0,1.7,0.2,2.4,0.9l0.1,0.1l-0.9,1.2l0,0c-0.4-0.4-0.9-0.5-1.4-0.5
					s-1,0.2-1.3,0.6l-0.1,0.1c-0.4,0.5-0.6,1.2-0.6,1.8c0,0.7,0.3,1.3,0.8,1.8l0.1,0.1c0.5,0.5,1.2,0.7,1.9,0.7
					c0.7,0,1.3-0.3,1.8-0.9l0.1-0.1c0.6-0.7,0.9-1.6,0.8-2.5c0-0.8-0.4-1.7-0.9-2.3l1.8-2.3c1,1.2,1.6,2.7,1.7,4.2
					C115.2,50.9,114.7,52.5,113.6,53.8 M108.9,50.8C108.9,50.9,108.9,50.9,108.9,50.8c0.2,0.2,0.4,0.2,0.6,0.2c0.5,0,0.8-0.5,0.8-1
					c0-0.2-0.1-0.4-0.2-0.6l0.4-0.5c0.2,0.3,0.3,0.6,0.3,1c0,0.7-0.5,1.5-1.2,1.5c-0.6,0-1.2-0.5-1.2-1.1c0-0.5,0.3-1,0.8-1
					c0.2,0,0.4,0.1,0.5,0.2l-0.1,0.2c-0.1-0.1-0.2-0.1-0.3-0.1c-0.4,0-0.6,0.4-0.6,0.7C108.7,50.5,108.7,50.7,108.9,50.8"/>
			</g>
		</g>
	</g>
</g>
</svg>
