<?xml version="1.0" encoding="utf-8"?>
<!-- Generator: Adobe Illustrator 23.0.0, SVG Export Plug-In . SVG Version: 6.00 Build 0)  -->
<svg version="1.1" id="Layer_1" xmlns="http://www.w3.org/2000/svg" xmlns:xlink="http://www.w3.org/1999/xlink" x="0px" y="0px"
	 viewBox="0 0 315 160" style="enable-background:new 0 0 315 160;" xml:space="preserve">
<style type="text/css">
	.st0{fill:none;stroke:#E4E4E4;stroke-width:2;}
	.st1{fill-rule:evenodd;clip-rule:evenodd;fill:#231F20;}
	.st2{fill-rule:evenodd;clip-rule:evenodd;fill:#E92D2E;}
	.st3{fill-rule:evenodd;clip-rule:evenodd;fill:#404042;}
	.st4{fill-rule:evenodd;clip-rule:evenodd;fill:#EC1D24;}
</style>
<title>My Office</title>
<g id="Symbols">
	<g id="Network-logos-Active" transform="translate(-456.000000, -40.000000)">
		<g id="My-Office" transform="translate(456.000000, 40.000000)">
			<path id="Rectangle-Copy" class="st0" d="M9,1h297c4.4,0,8,3.6,8,8v142c0,4.4-3.6,8-8,8H9c-4.4,0-8-3.6-8-8V9C1,4.6,4.6,1,9,1z"
				/>
			<g id="Group-19" transform="translate(71.000000, 61.000000)">
				<g id="Group-3">
					<g id="Clip-2">
					</g>
					<path id="Fill-1" class="st1" d="M27.4,0.5v34.3h-7.8V11.7l-3.1,23.2H11L7.8,12.2v22.6H0V0.5h11.5c0.3,2.1,0.7,4.5,1.1,7.3
						l1.2,8.7l2-16H27.4z"/>
				</g>
				<g id="Group-6" transform="translate(26.000000, 0.000000)">
					<g id="Clip-5">
					</g>
					<path id="Fill-4" class="st1" d="M20.9,0.5l-6.2,21.9v12.4H6.8V22.4l-6-21.9h7.8c1.2,6.7,1.9,11.2,2.1,13.5
						c0.5-3.7,1.3-8.2,2.4-13.5H20.9z"/>
				</g>
				<path id="Fill-7" class="st2" d="M63.4,8.3c0-0.1,0-0.2,0.1-0.3c0-0.1,0.1-0.2,0.1-0.3h2.9c0,0,0.1,0.1,0.1,0.2s0.1,0.2,0.1,0.3
					v17.4c0,0.1,0,0.2,0,0.3c0,0.1-0.1,0.2-0.1,0.2h-2.9c0-0.1-0.1-0.1-0.1-0.2s0-0.2,0-0.3V8.3H63.4z M73.4,5.3
					c-0.4-1-0.9-1.9-1.6-2.7s-1.5-1.4-2.4-1.9c-1-0.5-2-0.7-3.1-0.7h-2.9c-1.1,0-2.1,0.2-3.1,0.7c-0.9,0.5-1.7,1.1-2.4,1.9
					s-1.2,1.7-1.6,2.7c-0.4,1-0.6,2.1-0.6,3.2v16.8c0,1.1,0.2,2.2,0.6,3.2c0.4,1,0.9,1.9,1.5,2.7c0.7,0.8,1.5,1.4,2.4,1.9
					c1,0.5,2,0.7,3.1,0.7h2.9c1.1,0,2.1-0.2,3.1-0.7c0.9-0.5,1.7-1.1,2.4-1.9c0.7-0.8,1.2-1.7,1.5-2.7c0.4-1,0.6-2.1,0.6-3.3V8.6
					C74,7.4,73.8,6.3,73.4,5.3L73.4,5.3z"/>
				<polygon id="Fill-9" class="st2" points="94,7.8 94,0 76,0 76,34 83.4,34 83.4,19.3 91,19.3 91,11.6 83.4,11.6 83.4,7.8 				"/>
				<polygon id="Fill-11" class="st2" points="114,7.8 114,0 96,0 96,34 103.4,34 103.4,19.3 111,19.3 111,11.6 103.4,11.6 
					103.4,7.8 				"/>
				<g id="Clip-14">
				</g>
				<polygon id="Fill-13" class="st2" points="114,34 122,34 122,0 114,0 				"/>
				<polygon id="Fill-15" class="st2" points="171.5,7.2 171.5,0 156,0 156,34 172,34 172,26.8 163.6,26.8 163.6,19.8 171,19.8 
					171,12.9 163.6,12.9 163.6,7.2 				"/>
				<path id="Fill-16" class="st3" d="M154.7,27.1c0,0-0.1,0.2-0.4,0.5c-0.1,0.1-0.1,0.2-0.2,0.3c-0.1,0.1-0.2,0.2-0.3,0.3
					c-0.1,0.1-0.2,0.3-0.3,0.4s-0.2,0.3-0.4,0.4c-0.3,0.3-0.6,0.6-0.9,0.9c-0.4,0.3-0.7,0.6-1.2,1c-0.9,0.6-1.9,1.3-3.1,1.8
					c-1.2,0.5-2.6,1-4.1,1.2c-0.8,0.1-1.5,0.2-2.3,0.2h-0.3h-0.1h-0.2c-0.2,0-0.4,0-0.6,0c-0.2,0-0.4,0-0.6-0.1
					c-0.2,0-0.4,0-0.6-0.1c-0.8-0.1-1.7-0.3-2.5-0.6s-1.7-0.6-2.5-1c-1.6-0.8-3.1-1.9-4.5-3.2c-1.3-1.3-2.5-2.9-3.4-4.5
					c-0.2-0.4-0.4-0.8-0.6-1.3c-0.2-0.4-0.4-0.9-0.5-1.3c-0.3-0.9-0.6-1.8-0.7-2.7c-0.1-0.4-0.2-0.9-0.2-1.4c0-0.4-0.1-0.9-0.1-1.3
					v-0.3v-0.2V16v-0.2c0-0.2,0-0.4,0-0.6v-0.3c0-0.1,0-0.2,0-0.3c0-0.2,0-0.5,0-0.7c0.1-1.7,0.5-3.3,0.9-4.7c0.5-1.4,1-2.7,1.6-3.7
					c0.6-1.1,1.2-1.9,1.8-2.6c0.1-0.2,0.3-0.3,0.4-0.5c0.1-0.1,0.2-0.3,0.4-0.4c0.2-0.2,0.4-0.5,0.6-0.6c0.3-0.3,0.5-0.5,0.5-0.5
					c1.4-1.3,3.5-1.2,4.7,0.2c1.3,1.4,1.2,3.7-0.2,5c-0.1,0.1-0.1,0.1-0.2,0.2l-0.1,0.1c0,0-0.1,0.1-0.3,0.3
					c-0.1,0.1-0.2,0.2-0.4,0.4c-0.1,0.1-0.2,0.2-0.3,0.2c-0.1,0.1-0.2,0.2-0.3,0.3c-0.4,0.4-0.8,0.9-1.3,1.6
					c-0.4,0.7-0.9,1.4-1.3,2.3c-0.3,0.7-0.5,1.4-0.7,2.3c-0.1,0.3-0.1,0.5-0.1,0.8c0,0.1,0,0.3-0.1,0.4c0,0.1,0,0.1,0,0.2v0.3
					c0,0.2,0,0.4,0,0.6l0,0l0,0v0.1v0.2c0,0.3,0,0.6,0,0.9s0,0.6,0.1,0.9c0.1,0.6,0.2,1.3,0.4,1.9c0.1,0.3,0.2,0.6,0.3,0.9
					s0.2,0.6,0.4,0.9c0.5,1.2,1.3,2.4,2.2,3.4s1.9,1.9,3.1,2.6c0.6,0.3,1.2,0.6,1.8,0.9c0.6,0.2,1.2,0.4,1.9,0.6
					c0.2,0,0.3,0.1,0.5,0.1s0.3,0.1,0.5,0.1c0.1,0,0.3,0,0.4,0.1h0.1h0.1h0.3c0.6,0.1,1.2,0,1.8,0c1.2-0.1,2.3-0.3,3.3-0.7
					c1-0.4,1.9-0.8,2.6-1.3c0.4-0.2,0.7-0.5,1-0.7s0.6-0.5,0.8-0.7c0.1-0.1,0.2-0.2,0.3-0.3c0.1-0.1,0.2-0.2,0.3-0.3
					c0.1-0.1,0.2-0.2,0.2-0.2c0.1-0.1,0.1-0.2,0.2-0.2c0.3-0.3,0.4-0.4,0.4-0.4c0.5-0.6,1.5-0.7,2-0.1
					C155.1,25.5,155.2,26.4,154.7,27.1"/>
				<path id="Fill-17" class="st4" d="M151.3,23.1c0.5-0.1,0.9,0.6,0.5,1c-2.2,2.4-5.4,3.9-9,3.9c-6.6,0-11.9-5.1-11.9-11.4l0,0
					c0-0.6,0.8-0.9,1.1-0.4C136,22.6,141.9,24.3,151.3,23.1"/>
				<path id="Fill-18" class="st3" d="M154,38h-4.5l-6.8-2.2c-1.4-0.5-3-0.5-4.5,0l-6.7,2.2H127l11.2-3.6c1.4-0.5,3.1-0.5,4.5,0l0,0
					L154,38z"/>
			</g>
		</g>
	</g>
</g>
</svg>
