<?xml version="1.0" encoding="utf-8"?>
<!-- Generator: Adobe Illustrator 25.2.1, SVG Export Plug-In . SVG Version: 6.00 Build 0)  -->
<svg version="1.1" id="Layer_1" xmlns="http://www.w3.org/2000/svg" xmlns:xlink="http://www.w3.org/1999/xlink" x="0px" y="0px"
	 viewBox="0 0 315 160" style="enable-background:new 0 0 315 160;" xml:space="preserve">
<style type="text/css">
	.st0{fill:none;stroke:#E4E4E4;stroke-width:2;}
	.st1{fill:#ED6767;}
</style>
<path id="Rectangle-Copy" class="st0" d="M9,1h297c4.4,0,8,3.6,8,8v142c0,4.4-3.6,8-8,8H9c-4.4,0-8-3.6-8-8V9C1,4.6,4.6,1,9,1z"/>
<g>
	<g>
		<g>
			<path class="st1" d="M76.1,58.7H54.9V63H76c4,0,7.4,3.4,7.4,7.4v17h-5.2V80c0-6.5-5.2-11.7-11.6-11.7H54.9V80
				c0,6.5,5.2,11.7,11.6,11.7h7.4V97H49.7V68.3h-4.3v33h32.8v-9.6h9.5V70.4C87.8,63.9,82.5,58.7,76.1,58.7z M73.9,87.4h-7.4
				c-4,0-7.4-3.4-7.4-7.4v-7.4h7.4c4,0,7.4,3.4,7.4,7.4V87.4z"/>
		</g>
	</g>
	<g>
		<g>
			<path class="st1" d="M104,63.9h4.2l15.9,24.5V63.9h4.3v32.3h-4.2l-15.9-24.6v24.6H104V63.9z"/>
		</g>
		<g>
			<path class="st1" d="M135.1,89.8c0-4.9,3.7-7.5,9.8-7.5h5.1v-2.9c0-3-2-5-4.9-5c-2.4,0-4.3,1.5-5.1,3.6l-3.9-1.1
				c0.9-2.9,4-6.3,9-6.3c5.5,0,9.3,3.3,9.3,8.9V89c0,3.3,0.3,5.7,1.1,7.1h-4.6c-0.5-1-0.7-2-0.7-3.4c-1.3,2.3-4.3,3.9-7.5,3.9
				C138.3,96.7,135.1,94.1,135.1,89.8z M150,87.8v-2.5H145c-3.8,0-5.5,1.5-5.5,4.1c0,2.1,1.8,3.7,4.4,3.7C147,93,150,90.7,150,87.8z
				"/>
		</g>
		<g>
			<path class="st1" d="M163.1,89.3V75.1h-4.5v-3.9h4.5V64l4.3-0.8v7.9h6.6v4h-6.6v13.4c0,3,1.1,4.1,3.4,4.1c1.3,0,2.5-0.5,3.5-1
				l0.5,4.1c-1.5,0.7-3.2,1.1-4.7,1.1C165.8,96.7,163.1,94.3,163.1,89.3z"/>
		</g>
		<g>
			<path class="st1" d="M198.5,89.8c-1.3,3.9-5.6,6.9-10.2,6.9c-6.8,0-11.1-5.2-11.1-13.4c0-7.8,4.3-12.8,10.8-12.8
				c6.4,0,10.3,5.2,10.3,11.1v2.9h-16.7c0.2,5.3,2.9,8.5,6.9,8.5c2.8,0,5.2-1.6,6.2-4.1L198.5,89.8z M181.7,81H194
				c-0.1-3.9-2.5-6.6-6.1-6.6C184.6,74.3,182.3,76.7,181.7,81z"/>
		</g>
		<g>
			<path class="st1" d="M204,71.2h4.3v3.6c1.2-2.5,3.5-4.2,6.3-4.2c1.8,0,3.5,0.6,4.9,1.7l-1.7,3.9c-1.1-1-2.4-1.5-3.8-1.5
				c-3.1,0-5.7,3-5.7,7.5v13.8H204L204,71.2L204,71.2z"/>
		</g>
		<g>
			<path class="st1" d="M223.6,63.5c0-1.6,1.2-2.6,2.6-2.6c1.3,0,2.6,0.9,2.6,2.6c0,1.6-1.3,2.6-2.6,2.6
				C224.9,66.2,223.6,65.2,223.6,63.5z M224.1,71.2h4.3v24.9h-4.3V71.2z"/>
		</g>
		<g>
			<path class="st1" d="M234.5,89.8c0-4.9,3.7-7.5,9.8-7.5h5.1v-2.9c0-3-2-5-4.9-5c-2.4,0-4.3,1.5-5.1,3.6l-3.9-1.1
				c0.9-2.9,4-6.3,9-6.3c5.5,0,9.3,3.3,9.3,8.9V89c0,3.3,0.3,5.7,1.1,7.1h-4.6c-0.5-1-0.7-2-0.7-3.4c-1.3,2.3-4.3,3.9-7.5,3.9
				C237.7,96.7,234.5,94.1,234.5,89.8z M249.4,87.8v-2.5h-4.9c-3.8,0-5.5,1.5-5.5,4.1c0,2.1,1.8,3.7,4.4,3.7
				C246.4,93,249.4,90.7,249.4,87.8z"/>
		</g>
		<g>
			<path class="st1" d="M260.8,88.1V61.3h4.3v26.1c0,3.3,1.7,5.2,4.5,5.2l-0.2,3.9C263.9,96.4,260.8,93.4,260.8,88.1z"/>
		</g>
	</g>
</g>
</svg>
