<svg id="Layer_1" data-name="Layer 1" xmlns="http://www.w3.org/2000/svg" viewBox="0 0 315 160"><defs><style>.cls-1{fill:none;stroke:#e4e4e4;stroke-width:2px;}.cls-2{fill:#f4e7e8;}.cls-3{fill:#fff;}.cls-4,.cls-6{fill:#f26f21;}.cls-5{fill:#de6e20;}.cls-6{fill-rule:evenodd;}.cls-7{fill:#9e1c2d;}</style></defs><path id="Rectangle-Copy" class="cls-1" d="M9,1H306a8,8,0,0,1,8,8V151a8,8,0,0,1-8,8H9a8,8,0,0,1-8-8V9A8,8,0,0,1,9,1Z"/><path class="cls-2" d="M154.3,39.38a3,3,0,0,0-2.15-.87H152a3,3,0,0,0-2.16.88,2.92,2.92,0,0,0-.9,2.18V90.92a2.82,2.82,0,0,0,.9,2.14A2.92,2.92,0,0,0,152,94h.11a2.91,2.91,0,0,0,2.15-.91,2.83,2.83,0,0,0,.91-2.15V41.57A2.93,2.93,0,0,0,154.3,39.38Z"/><path class="cls-2" d="M97.25,74.93a14.57,14.57,0,0,0-6-3,51,51,0,0,1-6.57-2,5.05,5.05,0,0,1-3-4.7,5.3,5.3,0,0,1,1.56-3.81,5.21,5.21,0,0,1,3.82-1.57h7.3a3,3,0,0,0,2.2-.92,2.84,2.84,0,0,0,.92-2.16V56.7a3.14,3.14,0,0,0-3.12-3.12H87.44A11.68,11.68,0,0,0,75.78,65.24c0,3.28.9,5.83,2.68,7.58a14.83,14.83,0,0,0,6,3.08c4,1.12,6.11,1.76,6.55,2a4.72,4.72,0,0,1,3,4.45,5.34,5.34,0,0,1-5.38,5.38H78.45a3.11,3.11,0,0,0-3.08,3.12v.07a2.82,2.82,0,0,0,.91,2.16,2.92,2.92,0,0,0,2.17.93h9.81A11.59,11.59,0,0,0,99.92,82.32C99.92,79.09,99,76.61,97.25,74.93Z"/><path class="cls-2" d="M138.48,59.26a19.75,19.75,0,0,1,6,14.52V90.89a3.22,3.22,0,0,1-1,2.41,3.29,3.29,0,0,1-2.41,1H141a3.29,3.29,0,0,1-2.41-1,3.2,3.2,0,0,1-1-2.41V89.16a20.52,20.52,0,0,1-34.11-15.38,20.53,20.53,0,0,1,35-14.52Zm-24.14,4.93a13.57,13.57,0,1,0,9.63-4A13.09,13.09,0,0,0,114.34,64.19Z"/><path class="cls-2" d="M234.73,58.48A16.72,16.72,0,0,0,206.2,70.32V90.89a2.86,2.86,0,0,0,.91,2.16,2.92,2.92,0,0,0,2.17.93h.11a2.91,2.91,0,0,0,2.17-.92,2.87,2.87,0,0,0,.92-2.17V70.32a10.44,10.44,0,1,1,20.88,0V90.89a2.82,2.82,0,0,0,.91,2.16,3,3,0,0,0,2.21.93h.07a3.16,3.16,0,0,0,3.09-3.09V70.32A16.2,16.2,0,0,0,234.73,58.48Z"/><path class="cls-3" d="M200.6,73.75A20.08,20.08,0,0,1,195.68,87c-.26.31-.53.6-.82.89a20.19,20.19,0,1,1,5.74-14.09Z"/><path class="cls-4" d="M172.26,78.46a3,3,0,0,1-.73,1,7.1,7.1,0,0,1-2.65,1.61c-.31.12-.63.25-.94.4-1.11.54-2.33,1.4-3.69,4.08l0,0-.39-.2,0-.05c1.43-2.8,2.78-3.73,3.9-4.28.33-.16.66-.29,1-.42a6.58,6.58,0,0,0,2.49-1.5,2.92,2.92,0,0,0,.63-.84c.08-.21,0-.28,0-.34a.83.83,0,0,0-.49-.19,3.8,3.8,0,0,0-1,0,9,9,0,0,0-2.39.66,4.58,4.58,0,0,0-1.76,1.21l0,0-.05,0a9.34,9.34,0,0,1-1.77,1.56l0,0-.25-.37.05,0c2.69-1.79,4.26-5.35,5.55-9l-.74.32a9.47,9.47,0,0,0-3.28,1.88,1.94,1.94,0,0,1-.15,1.47c-.41.72-.83,1.32-1.23,1.9a9.54,9.54,0,0,0-1.93,4.08v0l-.44-.07v0a10,10,0,0,1,2-4.28,22,22,0,0,0,1.2-1.85A2.11,2.11,0,0,0,165,73.5c0-.07-.05-.13-.07-.2a3.33,3.33,0,0,1-.34-2,4,4,0,0,1,1.1-1.7l0,0a4.06,4.06,0,0,0,1.05-1.6,6.85,6.85,0,0,0,0-2.36,2.21,2.21,0,0,0-.44-1,.65.65,0,0,0-.8-.14c-.66.24-1.15.89-1.53,2-.15.44-.27.9-.38,1.35a11.43,11.43,0,0,1-.42,1.41,6.66,6.66,0,0,1-1.32,1.94c-.22.25-.44.5-.64.77a4.7,4.7,0,0,0-1,3.64v0l-.43,0v0a5.22,5.22,0,0,1,1.1-4c.22-.29.45-.55.67-.81A6.54,6.54,0,0,0,162.81,69a12.7,12.7,0,0,0,.38-1.31c.12-.47.24-1,.4-1.43a3.45,3.45,0,0,1,1.8-2.32,1.26,1.26,0,0,1,.71-.06h0a1,1,0,0,1,.54.3,2.6,2.6,0,0,1,.55,1.25,6.91,6.91,0,0,1,0,2.54,4.39,4.39,0,0,1-1.15,1.79,3.82,3.82,0,0,0-1,1.55,3.16,3.16,0,0,0,.34,1.85l.05.14c0,.09.08.19.11.28a10.45,10.45,0,0,1,3.26-1.81c.43-.18.83-.35,1.21-.53l.48-.22-.17.5a30,30,0,0,1-3.14,6.8c.2-.11.41-.21.64-.31a9.21,9.21,0,0,1,2.52-.69,4.26,4.26,0,0,1,1.06,0,1.17,1.17,0,0,1,.76.33A.74.74,0,0,1,172.26,78.46Z"/><path class="cls-4" d="M165.76,66.06v0a14.38,14.38,0,0,1-2.5,5.55c-.28.44-.57.89-.83,1.33-1.38,2.32-2.11,4.45-1.17,7.3l0,0-.42.14,0,0c-1.05-3.19,0-5.57,1.21-7.66.27-.46.56-.91.84-1.35a14.34,14.34,0,0,0,2.44-5.37V66Z"/><path class="cls-4" d="M167.55,74.56l0,0a9.56,9.56,0,0,1-1.87,2.71c-.27.31-.56.63-.81,1l0,0-.35-.27,0,0c.27-.34.56-.68.84-1a9.3,9.3,0,0,0,1.78-2.56l0,0Z"/><path class="cls-4" d="M167.16,80.56l0,0a6.38,6.38,0,0,0-2.52,1.47,3.8,3.8,0,0,0-1.24,2.49v.06l-.44,0v0a4.16,4.16,0,0,1,1.37-2.79A6.56,6.56,0,0,1,167,80.16l.06,0Z"/><polygon class="cls-4" points="184.82 93.84 184.38 93.93 184.37 93.87 183.92 91.47 183.92 91.47 183.98 91.18 183.98 91.17 184.1 90.62 184.1 90.62 184.13 90.48 184.13 90.48 184.16 90.33 184.82 93.84"/><path class="cls-5" d="M196.41,80v.21c0-.06.06-.1.07-.1l0,0Z"/><path class="cls-5" d="M196.35,79.93l0,0v.4l0-.07.06-.06V80Z"/><path class="cls-5" d="M195.05,86.33v0l0-.06Zm0,0v0l0-.06Zm0,0v0l0-.06Zm0,0v0l0-.06Zm0,0v0l0-.06Zm0,0v0l0-.06Zm0,0v0l0-.06Zm0,0v0l0-.06Zm0,0v0l0-.06Zm0,0v0l0-.06Zm0,0v0l0-.06Zm0,0v0l0-.06Zm0,0v0l0-.06Zm0,0v0l0-.06Zm0,0v0l0-.06Zm0,0v0l0-.06Zm0,0v0l0-.06Z"/><path class="cls-4" d="M181.66,65.79l-1.74-1.7V53.19h-.44V64l-1.79,1.75-2.21,1.95,4.19,0,4.2,0Zm-5.07,1.59L178.15,66l1.52-1.48L181.2,66l1.56,1.39-3.09,0Z"/><path class="cls-6" d="M196.11,108.64c-.38-2-1.79-2.88-3.79-2.88h-.94c-3.17,0-4.06,1.94-4.06,4.79v6.82c0,2.87.87,4.8,4.06,4.8h.94c3.2,0,4-2,4-4.8v-6.82A10.47,10.47,0,0,0,196.11,108.64Zm-2.52,8.72c0,1.32-.18,2.36-1.74,2.36s-1.73-1-1.73-2.36v-6.77c0-1.33.15-2.39,1.73-2.39s1.74,1.06,1.74,2.39ZM160.2,104.79c-.38-2-1.79-2.88-3.79-2.88h-.94c-3.18,0-4.06,2-4.06,4.8v10.66c0,2.81.82,4.8,4.06,4.8h.94c3.19,0,4-2,4-4.8V106.71A11.47,11.47,0,0,0,160.2,104.79Zm-2.52,12.57c0,1.32-.19,2.36-1.74,2.36s-1.74-1-1.74-2.36V106.75c0-1.34.16-2.4,1.74-2.4s1.74,1.06,1.74,2.4Z"/><path class="cls-6" d="M216.53,101.81a28,28,0,0,1-1.25,5.71,32.07,32.07,0,0,1-1.76,4.3v10.25H210.7V111.82a32,32,0,0,1-1.75-4.3,28,28,0,0,1-1.26-5.71h2.57a27.06,27.06,0,0,0,1.85,7.18,26.69,26.69,0,0,0,1.85-7.18Z"/><path class="cls-6" d="M117,101.81a28.68,28.68,0,0,1-1.25,5.71,32.07,32.07,0,0,1-1.76,4.3v10.25h-2.82V111.82a33.45,33.45,0,0,1-1.76-4.3,28.68,28.68,0,0,1-1.25-5.71h2.57a27.06,27.06,0,0,0,1.85,7.18,26.69,26.69,0,0,0,1.85-7.18Z"/><path class="cls-6" d="M204.1,110.71c.41-.69.8-1.36,1.16-2s.7-1.32,1-2c.75-1.57,1-2.76.63-3.58s-1.2-1.22-2.63-1.22h-6.6v20.27h2.74v-5.81c.29-.47.61-1,.94-1.44s.67-1,1-1.5a34,34,0,0,1,2,8.75H207a47.51,47.51,0,0,0-1.44-6.88C205.1,113.57,204.61,112.05,204.1,110.71Zm-.29-4.74a10.5,10.5,0,0,1-.8,1.53l-2.59,4.21v-7.36H202a4.43,4.43,0,0,1,1.31.15.77.77,0,0,1,.57.5A1.53,1.53,0,0,1,203.81,106Z"/><polygon class="cls-6" points="195.99 104.35 185.95 104.35 185.95 122.17 183.21 122.17 183.21 104.35 179.16 104.35 179.81 101.9 195.36 101.9 195.99 104.35"/><path class="cls-6" d="M176.43,101.9h-4.22v20.27H175V117.6h3.66a21.15,21.15,0,0,1-.14,4.57h2.78A32.91,32.91,0,0,0,176.43,101.9ZM175,115.16v-10c1.93,2.46,2.91,6.83,3.39,10Z"/><path class="cls-6" d="M168,110.71c.41-.69.8-1.36,1.16-2s.71-1.32,1-2c.74-1.57,1-2.76.63-3.58s-1.2-1.22-2.64-1.22h-6.59v20.27h2.74v-5.81c.29-.47.61-1,.94-1.44s.67-1,1-1.5a34,34,0,0,1,2,8.75h2.69a48.88,48.88,0,0,0-1.44-6.88C169,113.57,168.54,112.05,168,110.71Zm-.3-4.74a9.41,9.41,0,0,1-.79,1.53l-2.59,4.21v-7.36H166a4.39,4.39,0,0,1,1.31.15.79.79,0,0,1,.57.5A1.48,1.48,0,0,1,167.73,106Z"/><polygon class="cls-6" points="135.28 119.72 134.63 122.17 125.21 122.17 125.21 101.9 127.95 101.9 127.95 119.72 135.28 119.72"/><path class="cls-6" d="M134.5,101.9h-4.22v16.38H133v-3.56h3.32a32.3,32.3,0,0,1,.38,3.92,17.43,17.43,0,0,1-.19,3.53h2.79A32.91,32.91,0,0,0,134.5,101.9ZM133,112.27V105.2a18.44,18.44,0,0,1,2.85,7.07Z"/><path class="cls-6" d="M150.11,117.37A29.11,29.11,0,0,0,148.8,114c-.52-1.12-1.07-2.23-1.64-3.33.42-.67.81-1.33,1.18-2s.72-1.32,1-2c.75-1.57.95-2.77.62-3.58s-1.22-1.22-2.65-1.22h-6.6v20.26h6.6c1.45,0,2.4-.41,2.84-1.22A4.73,4.73,0,0,0,150.11,117.37Zm-6.63-13h1.62a4.63,4.63,0,0,1,1.33.15.8.8,0,0,1,.59.5,1.45,1.45,0,0,1-.14,1,9.78,9.78,0,0,1-.81,1.53q-.7,1.22-1.35,2.25c-.43.7-.84,1.36-1.24,2Zm4,14.72a1,1,0,0,1-.64.51,5.31,5.31,0,0,1-1.35.14h-2V116.4c.65-1,1.32-2,2-3,.21.51.45,1,.7,1.55s.51,1.06.77,1.63a10.5,10.5,0,0,1,.56,1.55A1.43,1.43,0,0,1,147.47,119.07Z"/><path class="cls-6" d="M107.84,117.37a27.48,27.48,0,0,0-1.32-3.36c-.52-1.12-1.06-2.23-1.63-3.33.41-.67.8-1.33,1.18-2s.72-1.32,1-2c.74-1.57,1-2.77.62-3.58s-1.22-1.22-2.65-1.22h-6.6v20.26h6.6c1.45,0,2.39-.41,2.84-1.22A4.73,4.73,0,0,0,107.84,117.37Zm-6.63-13h1.62a4.51,4.51,0,0,1,1.32.15.79.79,0,0,1,.59.5,1.43,1.43,0,0,1-.13,1,11.86,11.86,0,0,1-.81,1.53q-.7,1.22-1.35,2.25l-1.24,2Zm4,14.72a1,1,0,0,1-.65.51,5.17,5.17,0,0,1-1.34.14h-2V116.4c.64-1,1.32-2,2-3,.22.51.45,1,.71,1.55s.51,1.06.77,1.63a10.27,10.27,0,0,1,.55,1.55A1.44,1.44,0,0,1,105.2,119.07Z"/><path class="cls-7" d="M154.78,38.9a3.68,3.68,0,0,0-2.63-1.07H152a3.68,3.68,0,0,0-2.63,1.07,3.64,3.64,0,0,0-1.11,2.67V90.92a3.5,3.5,0,0,0,1.11,2.63A3.62,3.62,0,0,0,152,94.66h.11a3.62,3.62,0,0,0,2.63-1.11,3.5,3.5,0,0,0,1.11-2.63V41.57A3.64,3.64,0,0,0,154.78,38.9Zm.43,52a2.83,2.83,0,0,1-.91,2.15,2.91,2.91,0,0,1-2.15.91H152a2.92,2.92,0,0,1-2.16-.92,2.82,2.82,0,0,1-.9-2.14V41.57a2.92,2.92,0,0,1,.9-2.18,3,3,0,0,1,2.16-.88h.11a3,3,0,0,1,2.15.87,2.93,2.93,0,0,1,.91,2.19Z"/><path class="cls-7" d="M97.72,74.43a15.18,15.18,0,0,0-6.32-3.16A51.38,51.38,0,0,1,85,69.34a4.35,4.35,0,0,1-2.6-4.1,4.56,4.56,0,0,1,1.37-3.33,4.5,4.5,0,0,1,3.33-1.37h7.3A3.7,3.7,0,0,0,97,59.43a3.57,3.57,0,0,0,1.12-2.65V56.7A3.71,3.71,0,0,0,97,54a3.66,3.66,0,0,0-2.68-1.11H87.44A12.34,12.34,0,0,0,75.1,65.24c0,3.46,1,6.18,2.89,8.07a15.4,15.4,0,0,0,6.31,3.24c4.83,1.36,6.17,1.81,6.45,1.94a4,4,0,0,1,2.59,3.83,4.68,4.68,0,0,1-4.7,4.7H78.45a3.63,3.63,0,0,0-2.65,1.11,3.69,3.69,0,0,0-1.12,2.69v.07a3.54,3.54,0,0,0,1.12,2.65,3.64,3.64,0,0,0,2.65,1.12h9.81A12.27,12.27,0,0,0,100.6,82.32C100.6,78.9,99.63,76.25,97.72,74.43ZM88.26,94H78.45a2.92,2.92,0,0,1-2.17-.93,2.82,2.82,0,0,1-.91-2.16v-.07a3.11,3.11,0,0,1,3.08-3.12H88.64A5.34,5.34,0,0,0,94,82.32a4.72,4.72,0,0,0-3-4.45c-.44-.21-2.59-.85-6.55-2a14.83,14.83,0,0,1-6-3.08c-1.78-1.75-2.68-4.3-2.68-7.58A11.68,11.68,0,0,1,87.44,53.58h6.92a3.14,3.14,0,0,1,3.12,3.12v.08a2.84,2.84,0,0,1-.92,2.16,3,3,0,0,1-2.2.92h-7.3a5.21,5.21,0,0,0-3.82,1.57,5.3,5.3,0,0,0-1.56,3.81,5.05,5.05,0,0,0,3,4.7,51,51,0,0,0,6.57,2,14.57,14.57,0,0,1,6,3c1.77,1.68,2.67,4.16,2.67,7.39A11.59,11.59,0,0,1,88.26,94Z"/><path class="cls-7" d="M141.08,94.66H141a3.64,3.64,0,0,1-2.65-1.12,3.54,3.54,0,0,1-1.12-2.65v-1a20.87,20.87,0,0,1-34.11-16.12A20.87,20.87,0,0,1,138.73,59h0a20.18,20.18,0,0,1,6.11,14.76V90.89a3.54,3.54,0,0,1-1.12,2.66A3.63,3.63,0,0,1,141.08,94.66Zm-3.2-6.25v2.48a2.83,2.83,0,0,0,.92,2.16A2.92,2.92,0,0,0,141,94h.11a2.94,2.94,0,0,0,2.17-.92,2.86,2.86,0,0,0,.91-2.17V73.78A20.19,20.19,0,0,0,109.69,59.5a20.18,20.18,0,0,0,0,28.56,20.15,20.15,0,0,0,27.63.85ZM124,87.7A13.94,13.94,0,0,1,114.09,64h0a13.93,13.93,0,1,1,19.7,19.7A13.48,13.48,0,0,1,124,87.7Zm-9.39-23.27A13.23,13.23,0,1,0,124,60.54,12.84,12.84,0,0,0,114.58,64.43Z"/><path class="cls-7" d="M235.21,58a17.4,17.4,0,0,0-29.69,12.32V90.89a3.53,3.53,0,0,0,1.11,2.65,3.64,3.64,0,0,0,2.65,1.12h.11A3.64,3.64,0,0,0,212,93.54a3.54,3.54,0,0,0,1.12-2.65V70.32a9.76,9.76,0,1,1,19.52,0V90.89a3.53,3.53,0,0,0,1.11,2.65,3.69,3.69,0,0,0,2.69,1.12h.07a3.83,3.83,0,0,0,3.77-3.77V70.32A16.86,16.86,0,0,0,235.21,58Zm4.43,32.89A3.16,3.16,0,0,1,236.55,94h-.07a3,3,0,0,1-2.21-.93,2.82,2.82,0,0,1-.91-2.16V70.32a10.44,10.44,0,1,0-20.88,0V90.89a2.87,2.87,0,0,1-.92,2.17,2.91,2.91,0,0,1-2.17.92h-.11a2.92,2.92,0,0,1-2.17-.93,2.86,2.86,0,0,1-.91-2.16V70.32a16.72,16.72,0,1,1,33.44,0Z"/><path class="cls-7" d="M201.25,73.75a20.82,20.82,0,0,1-4.91,13.43l-.16.19-.5-.42a20.28,20.28,0,1,0-.82.89l.47.46-.18.18a20.85,20.85,0,1,1,6.1-14.73Z"/><path class="cls-4" d="M195.51,86.41a6.92,6.92,0,0,0,1.23-4.16V77a6.49,6.49,0,0,0-2.18-5.11,7.55,7.55,0,0,0-4.73-1.67h-.05a8.38,8.38,0,0,0-4.8,1.38,5.09,5.09,0,0,0-2.27,4.12v5.5a19.18,19.18,0,0,1-2,.1c-2.66,0-4,.81-4.66,1.48a2.86,2.86,0,0,0-.82,1.52h0l-.83,3.79H171v.45h3.27l-1.39,6.4v0l.43.09,1.43-6.54h8.61l.34,1.79h0l-1,4.94,0,0,.44.09.82-3.94h0l.06-.29h0l.12-.55h0l0-.14h0l0-.15.37-1.8h8a5.45,5.45,0,0,0,2.11-1.18c.16-.14.32-.3.49-.48l1.47,8.24v.06l.43-.08Zm-11.57,2.77-.12-.65h.26Zm.23-1.09h-9.32l.81-3.7v0a2.42,2.42,0,0,1,.7-1.28c.87-.89,2.34-1.35,4.35-1.35a11.94,11.94,0,0,0,4.88-.8,3.6,3.6,0,0,0,.9-.57,1.85,1.85,0,0,0,.25-.3l0,0-.39-.22,0,.06a1.21,1.21,0,0,1-.17.18,3.16,3.16,0,0,1-.78.5,7.74,7.74,0,0,1-2.26.61V75.71a4.59,4.59,0,0,1,2.09-3.77,7.8,7.8,0,0,1,4.53-1.29,7.15,7.15,0,0,1,4.5,1.57,6,6,0,0,1,2,4.77V79.9l-.18-.1,0,.06a.78.78,0,0,1-.16.18,3.38,3.38,0,0,1-.78.5,11.27,11.27,0,0,1-4.7.76c-2.66,0-4,.81-4.67,1.48a2.91,2.91,0,0,0-.82,1.53h0ZM194.36,87a4.9,4.9,0,0,1-1.9,1.07h-7.84l.78-3.7v0a2.33,2.33,0,0,1,.7-1.28c.87-.89,2.33-1.35,4.34-1.35a12,12,0,0,0,4.89-.8,3.31,3.31,0,0,0,.89-.57l.08-.07v2A6.05,6.05,0,0,1,194.36,87Z"/></svg>