<?xml version="1.0" encoding="utf-8"?>
<!-- Generator: Adobe Illustrator 25.0.0, SVG Export Plug-In . SVG Version: 6.00 Build 0)  -->
<svg version="1.1" id="Layer_1" xmlns="http://www.w3.org/2000/svg" xmlns:xlink="http://www.w3.org/1999/xlink" x="0px" y="0px"
	 viewBox="0 0 315 160" style="enable-background:new 0 0 315 160;" xml:space="preserve">
<style type="text/css">
	.st0{fill:none;stroke:#E4E4E4;stroke-width:2;}
	.st1{fill:#22447B;}
</style>
<path id="Rectangle-Copy" class="st0" d="M9,1h297c4.4,0,8,3.6,8,8v142c0,4.4-3.6,8-8,8H9c-4.4,0-8-3.6-8-8V9C1,4.6,4.6,1,9,1z"/>
<g>
	<g>
		<path class="st1" d="M76.4,97.3c0.6,0,1.1,0,1.5,0.1c0.4,0,0.8,0.1,1.1,0.1c0.3,0.1,0.6,0.1,0.9,0.2c0.2,0.1,0.5,0.1,0.6,0.2
			l0,3.1h-0.4c0-0.9-0.3-1.5-0.9-2s-1.5-0.7-2.7-0.7c-1.1,0-1.9,0.3-2.7,0.9c-0.7,0.6-1.1,1.3-1.1,2.1c0,0.3,0,0.6,0.1,0.8
			c0.1,0.3,0.2,0.6,0.4,0.8c0.2,0.3,0.4,0.5,0.7,0.8l6.4,4.9c0.5,0.4,0.8,0.9,1.1,1.5c0.2,0.6,0.4,1.2,0.4,1.8
			c0,0.9-0.2,1.8-0.7,2.6c-0.5,0.8-1.2,1.4-2,1.8c-0.9,0.5-1.8,0.7-2.8,0.7c-0.6,0-1.3-0.1-2-0.2c-0.7-0.1-1.4-0.3-2-0.5
			c-0.6-0.2-1.1-0.5-1.5-0.8c-0.1-0.3-0.1-0.7-0.1-1.1c0-0.5,0-0.9,0.1-1.4c0.1-0.5,0.2-1,0.3-1.4h0.4c-0.1,0.9,0.1,1.8,0.4,2.4
			c0.4,0.7,0.9,1.2,1.6,1.5c0.7,0.3,1.5,0.5,2.4,0.5c1.3,0,2.3-0.4,3.1-1c0.7-0.6,1.1-1.4,1.1-2.5c0-0.5-0.1-1-0.3-1.4
			c-0.2-0.4-0.5-0.8-0.9-1.1l-6.3-4.8c-0.6-0.5-1-1.1-1.2-1.7c-0.2-0.6-0.3-1.2-0.3-1.7c0-0.9,0.2-1.6,0.7-2.3
			c0.5-0.7,1.1-1.2,1.9-1.7C74.6,97.5,75.5,97.3,76.4,97.3z M80.6,97.6l0,0.6h-2.2v-0.6H80.6z"/>
		<path class="st1" d="M87.7,99.8L87.7,99.8c-0.1-0.5-0.3-0.9-0.6-1.2c-0.4-0.3-0.8-0.5-1.3-0.5h-0.4v-0.3h2.3V99.8z M87.7,114.6
			l0.4,2h-2.7v-0.3h0.4c0.5,0,1-0.2,1.3-0.5C87.4,115.5,87.6,115.1,87.7,114.6L87.7,114.6z M89.6,97.8v18.9h-2V97.8H89.6z
			 M89.5,99.8v-2h2.3v0.3h-0.4c-0.5,0-0.9,0.2-1.3,0.5C89.8,98.9,89.6,99.3,89.5,99.8L89.5,99.8z M98.1,115.7l-0.1,1h-8.5v-1H98.1z
			 M99.9,112.2l-1.7,4.5h-4.8l1.1-1c1,0,1.9-0.2,2.5-0.5c0.6-0.3,1.2-0.7,1.6-1.3c0.4-0.5,0.7-1.1,1-1.8H99.9z"/>
		<path class="st1" d="M103.8,99.8L103.8,99.8c-0.1-0.5-0.3-0.9-0.6-1.2c-0.3-0.3-0.8-0.5-1.3-0.5h-0.4v-0.3h2.7L103.8,99.8z
			 M103.8,114.6l0.4,2h-2.7v-0.3h0.4c0.5,0,1-0.2,1.3-0.5C103.5,115.5,103.7,115.1,103.8,114.6L103.8,114.6z M105.8,97.8v18.9h-2
			V97.8H105.8z M114.2,97.8v1h-8.5v-1H114.2z M112.8,106.7v0.9h-7.1v-0.9H112.8z M114.2,115.7l-0.1,1h-8.5v-1H114.2z M116,112.2
			l-1.7,4.5h-4.8l1.1-1c1,0,1.9-0.2,2.5-0.5c0.6-0.3,1.2-0.7,1.6-1.3c0.4-0.5,0.7-1.1,1-1.8H116z M114.2,97.3v0.8l-3.6-0.3
			c0.7,0,1.3-0.1,2.1-0.2C113.4,97.5,113.9,97.4,114.2,97.3z M112.8,105v1.8h-1.6v-0.1c0.4,0,0.8-0.1,1-0.4c0.2-0.3,0.3-0.6,0.3-0.9
			V105H112.8z M112.8,107.6v1.8h-0.3V109c0-0.4-0.1-0.7-0.3-0.9c-0.2-0.3-0.5-0.4-1-0.4v-0.1H112.8z M114.2,98.6v2.2h-0.3v-0.5
			c0-0.4-0.1-0.8-0.4-1.1c-0.3-0.3-0.7-0.5-1.1-0.5v-0.1H114.2z"/>
		<path class="st1" d="M120.7,99.8L120.7,99.8c-0.1-0.5-0.3-0.9-0.6-1.2c-0.3-0.3-0.8-0.5-1.3-0.5h-0.4v-0.3h2.7L120.7,99.8z
			 M120.7,114.6l0.4,2h-2.7v-0.3h0.4c0.5,0,1-0.2,1.3-0.5C120.4,115.5,120.6,115.1,120.7,114.6L120.7,114.6z M122.6,97.8v18.9h-2
			V97.8H122.6z M131.1,97.8v1h-8.5v-1H131.1z M129.6,106.7v0.9h-7.1v-0.9H129.6z M131.1,115.7l-0.1,1h-8.5v-1H131.1z M132.9,112.2
			l-1.7,4.5h-4.8l1.1-1c1,0,1.9-0.2,2.5-0.5c0.6-0.3,1.2-0.7,1.6-1.3c0.4-0.5,0.7-1.1,1-1.8H132.9z M131.1,97.3v0.8l-3.6-0.3
			c0.7,0,1.3-0.1,2.1-0.2C130.3,97.5,130.8,97.4,131.1,97.3z M129.6,105v1.8H128v-0.1c0.4,0,0.8-0.1,1-0.4c0.2-0.3,0.3-0.6,0.3-0.9
			V105H129.6z M129.6,107.6v1.8h-0.3V109c0-0.4-0.1-0.7-0.3-0.9c-0.2-0.3-0.5-0.4-1-0.4v-0.1H129.6z M131.1,98.6v2.2h-0.3v-0.5
			c0-0.4-0.1-0.8-0.4-1.1c-0.3-0.3-0.7-0.5-1.1-0.5v-0.1H131.1z"/>
		<path class="st1" d="M137.6,99.8L137.6,99.8c-0.1-0.5-0.3-0.9-0.6-1.2c-0.3-0.3-0.8-0.5-1.3-0.5h-0.4v-0.3h2.7L137.6,99.8z
			 M137.6,114.6l0.4,2h-2.7v-0.3h0.4c0.5,0,0.9-0.2,1.3-0.5C137.3,115.5,137.5,115.1,137.6,114.6L137.6,114.6z M139.5,97.8v18.9h-2
			V97.8H139.5z M139.4,114.6L139.4,114.6c0.1,0.5,0.3,0.9,0.6,1.2c0.3,0.3,0.8,0.5,1.3,0.5c0,0,0.2,0,0.4,0v0.3H139L139.4,114.6z
			 M142.6,97.8c1.5,0,2.7,0.2,3.8,0.6c1.1,0.4,1.9,1.1,2.5,1.9c0.6,0.8,0.9,1.8,0.9,2.9c0,1.2-0.3,2.2-0.8,3.1
			c-0.5,0.9-1.2,1.5-2.1,2c-0.9,0.5-1.9,0.7-2.9,0.7c-1.1,0-2.1-0.3-3.2-0.8v-0.3c0.7,0.1,1.3,0.2,1.9,0.2c0.5,0,1.1-0.1,1.7-0.3
			c0.6-0.2,1.2-0.5,1.7-1c0.5-0.5,1-1.2,1.3-2.1c0.1-0.2,0.1-0.5,0.2-0.8c0-0.3,0-0.6,0-0.9c0-1.3-0.4-2.3-1.3-3s-2.1-1.1-3.7-1.1
			h-3.1c-0.1-0.3-0.2-0.6-0.3-0.9H142.6z"/>
		<path class="st1" d="M177.4,106.3c0.2,1.2,0.3,2.3,0.2,3.3c-0.1,1.1-0.4,2-0.8,2.9c-0.4,0.9-1,1.7-1.7,2.3
			c-0.7,0.7-1.5,1.2-2.5,1.6c-1,0.4-2,0.6-3.2,0.6c-1.2,0-2.3-0.1-3.4-0.3c-1-0.2-1.9-0.5-2.7-0.9c-0.8-0.4-1.4-0.9-2-1.5
			c-0.5-0.6-0.9-1.3-1.2-2c-0.3-0.8-0.4-1.6-0.4-2.6c0-0.6,0.1-1.2,0.2-1.7c0.1-0.5,0.3-1,0.6-1.4c0.3-0.4,0.6-0.8,0.9-1.2
			c0.3-0.3,0.7-0.7,1.1-1c0.4-0.3,0.9-0.5,1.4-0.8l0.4,0.7c-0.4,0.3-0.8,0.7-1.1,1.1c-0.3,0.4-0.5,0.8-0.7,1.3
			c-0.2,0.5-0.3,0.9-0.4,1.4c-0.1,0.5-0.1,1-0.1,1.5c0,0.9,0.2,1.8,0.5,2.6c0.3,0.8,0.8,1.5,1.4,2c0.6,0.6,1.4,1,2.3,1.3
			c0.9,0.3,2,0.5,3.1,0.5c1.1,0,2-0.2,2.8-0.6c0.8-0.4,1.5-1,2.1-1.7c0.6-0.7,1-1.5,1.2-2.3c0.3-0.9,0.4-1.7,0.3-2.6
			c0-0.9-0.3-1.7-0.6-2.4c-0.2-0.4-0.5-0.8-0.8-1c-0.3-0.3-0.7-0.4-1.2-0.4h-0.5v-0.3h6.3v0.3h-0.5c-0.5,0-0.8,0.1-1,0.4
			C177.3,105.5,177.3,105.9,177.4,106.3z M168.7,94.2c0.7,0,1.4,0.1,2.1,0.3c0.7,0.2,1.3,0.4,1.9,0.8c0.6,0.3,1,0.7,1.4,1.2
			l-0.6,3.6h-0.3c0-1-0.2-1.9-0.6-2.6c-0.4-0.7-0.9-1.3-1.6-1.7s-1.4-0.6-2.3-0.6c-1.2,0-2.2,0.4-3,1.3c-0.8,0.8-1.2,1.9-1.2,3.2
			c0,1.3,0.4,2.6,1.3,3.7c0.9,1.1,2.1,2.4,3.7,3.9c0.5,0.4,1,0.9,1.5,1.4c0.6,0.5,1.2,1.1,1.9,1.7c0.7,0.6,1.5,1.3,2.4,2.1
			c0.7,0.5,1.4,1.1,2.1,1.7c0.7,0.6,1.4,1.1,2.2,1.6c0.7,0.4,1.5,0.7,2.3,0.8v0.3c-0.4,0-1,0-1.7,0c-0.7,0-1.6-0.2-2.5-0.4
			c-0.9-0.3-1.8-0.8-2.7-1.5c-0.8-0.7-1.5-1.3-2.2-1.8c-0.7-0.6-1.3-1.1-1.8-1.5s-1.1-0.9-1.6-1.4c-0.5-0.4-1-0.9-1.4-1.3
			c-1.2-1.1-2.3-2.2-3.1-3.1c-0.9-0.9-1.5-1.8-2-2.8c-0.5-1-0.7-2-0.7-3.3c0-0.8,0.1-1.5,0.4-2.1c0.3-0.7,0.7-1.2,1.3-1.7
			c0.6-0.5,1.2-0.9,2-1.1C166.8,94.3,167.7,94.2,168.7,94.2z"/>
		<path class="st1" d="M191.1,99.8L191.1,99.8c-0.1-0.5-0.3-0.9-0.6-1.2c-0.3-0.3-0.8-0.5-1.3-0.5h-0.4v-0.3h2.4V99.8z M191.1,114.6
			v2h-2.4v-0.3h0.4c0.5,0,1-0.2,1.3-0.5C190.8,115.5,191,115.1,191.1,114.6L191.1,114.6z M193,97.8v18.9h-2V97.8H193z M195.2,97.8
			c0.6,0,1.2,0.1,2,0.2c0.7,0.1,1.5,0.3,2.2,0.6c0.7,0.3,1.3,0.8,1.7,1.4c0.5,0.6,0.7,1.5,0.7,2.5c0,0.6-0.2,1.2-0.5,1.8
			c-0.3,0.5-0.8,1-1.3,1.4c-0.5,0.4-1.1,0.6-1.7,0.8c1,0.1,1.9,0.4,2.7,0.9c0.8,0.5,1.4,1.1,1.9,1.8c0.5,0.7,0.7,1.5,0.7,2.3
			c0,1-0.2,1.9-0.6,2.6c-0.4,0.7-1,1.2-1.7,1.6c-0.7,0.4-1.4,0.7-2.3,0.9c-0.8,0.2-1.6,0.3-2.4,0.3h-3.8c0-0.3,0-0.6,0-0.9h3.8
			c0.9,0,1.7-0.2,2.4-0.5c0.7-0.3,1.3-0.8,1.7-1.4c0.4-0.7,0.6-1.5,0.6-2.5c0-1-0.2-1.8-0.7-2.4c-0.4-0.6-1-1.1-1.7-1.4
			s-1.5-0.5-2.4-0.7c-0.9-0.1-1.7-0.2-2.6-0.2v-0.3c0.6,0,1.2,0,1.8-0.1c0.7-0.1,1.3-0.3,1.8-0.5c0.6-0.3,1-0.7,1.4-1.2
			c0.4-0.5,0.5-1.2,0.5-2.1c0-1.3-0.4-2.3-1.2-2.9c-0.8-0.6-1.8-0.9-3.2-0.9h-3.4c0,0,0-0.1-0.1-0.3c-0.1-0.2-0.1-0.4-0.2-0.7H195.2
			z"/>
		<path class="st1" d="M209,99.8L209,99.8c-0.1-0.5-0.3-0.9-0.6-1.2c-0.3-0.3-0.8-0.5-1.3-0.5h-0.4v-0.3h2.7L209,99.8z M209,114.6
			l0.4,2h-2.7v-0.3h0.4c0.5,0,1-0.2,1.3-0.5C208.8,115.5,208.9,115.1,209,114.6L209,114.6z M211,97.8v18.9h-2V97.8H211z M219.4,97.8
			v1h-8.5v-1H219.4z M218,106.7v0.9h-7.1v-0.9H218z M219.4,115.7l-0.1,1h-8.5v-1H219.4z M221.2,112.2l-1.7,4.5h-4.8l1.1-1
			c1,0,1.9-0.2,2.5-0.5c0.6-0.3,1.2-0.7,1.6-1.3c0.4-0.5,0.7-1.1,1-1.8H221.2z M219.4,97.3v0.8l-3.6-0.3c0.7,0,1.3-0.1,2.1-0.2
			C218.6,97.5,219.1,97.4,219.4,97.3z M218,105v1.8h-1.6v-0.1c0.4,0,0.8-0.1,1-0.4c0.2-0.3,0.3-0.6,0.3-0.9V105H218z M218,107.6v1.8
			h-0.3V109c0-0.4-0.1-0.7-0.3-0.9c-0.2-0.3-0.5-0.4-1-0.4v-0.1H218z M219.4,98.6v2.2h-0.3v-0.5c0-0.4-0.1-0.8-0.4-1.1
			c-0.3-0.3-0.7-0.5-1.1-0.5v-0.1H219.4z"/>
		<path class="st1" d="M225.8,99.8L225.8,99.8c-0.1-0.5-0.3-0.9-0.6-1.2c-0.3-0.3-0.8-0.5-1.3-0.5h-0.4v-0.3h2.3V99.8z M225.8,114.6
			v2h-2.3v-0.3h0.4c0.5,0,0.9-0.2,1.3-0.5C225.6,115.5,225.7,115.1,225.8,114.6L225.8,114.6z M227.8,97.8v18.9h-2V97.8H227.8z
			 M234.1,97.8c2.1,0,3.9,0.4,5.4,1.1c1.5,0.8,2.7,1.8,3.5,3.3c0.8,1.4,1.2,3.1,1.2,5.1c0,2-0.4,3.6-1.2,5c-0.8,1.4-2,2.5-3.5,3.3
			c-1.5,0.8-3.3,1.1-5.4,1.1h-6.7l-0.1-0.9c1.5,0,2.7,0,3.7,0c1,0,2,0,3.1,0c2.4,0,4.4-0.8,5.7-2.3c1.4-1.5,2.1-3.6,2.1-6.2
			c0-2.6-0.7-4.7-2.1-6.2c-1.4-1.5-3.3-2.3-5.7-2.3c-1.1,0-2.2,0-3.2,0s-2.3,0-3.9,0v-0.9H234.1z"/>
	</g>
	<path class="st1" d="M164.5,64.3c2.2-0.6,4.3-2.7,4.3-6.1c0-4-3-6.7-8.4-6.7l-7.5,0l0,0l0,0l-0.1,0v0l-1.4,0
		c-4.4,0-6.8,3.3-6.8,6.5c0,1.5,0.5,3.4,2.1,4.8l7.4,6.9c1,0.9,1.5,2.1,1.5,3.6c0,3.1-2.4,5-5.2,5.2c-3.4,0.2-6-2.4-5.6-6.3h-0.3
		c-0.6,1.7-0.7,4.2-0.4,5.4c1.5,1.6,4.6,2.1,6.5,2.1h2.2h9.4c5.8,0,9-3,9-7.6C171.1,68.1,168.6,65,164.5,64.3z M148.2,60.7
		c-1.2-1.1-1.6-2.6-1.6-3.6c0-2.4,1.9-4.4,4.8-4.4c2.1,0,3.8,1.1,4.3,3.1v11.8L148.2,60.7z M162,78.2h-3.8V52.8h2
		c3.7,0,5.6,2.1,5.6,5.7c0,5.2-4,5.9-6.4,5.9l0,0.4c3.7,0,8.7,1,8.7,7C168.2,75.9,166,78.2,162,78.2z"/>
	<g>
		<g>
			<path class="st1" d="M155.4,84.8c-0.2,0-0.2,0-0.4-0.1c0-0.1,0-0.2,0.1-0.3c0.1,0,0.2,0,0.3,0c0.1,0,0.1,0,0.2-0.1
				c0,0,0.1-0.1,0.1-0.2c0.1,0,0.2,0,0.3,0c-0.1,1-0.2,1.5-0.3,2.5c-0.2,0-0.3,0-0.4-0.1C155.2,86,155.3,85.6,155.4,84.8z"/>
			<path class="st1" d="M156.3,86.8c-0.1-0.1-0.1-0.3-0.1-0.5c0,0,0,0,0,0c0.2,0,0.2,0,0.4,0c0,0,0,0,0,0.1c0,0.2,0.1,0.3,0.2,0.3
				c0.1,0,0.1,0,0.2-0.1c0,0,0.1-0.1,0.1-0.2c0-0.2,0-0.3,0-0.5c0,0,0,0,0,0c-0.1,0.1-0.2,0.2-0.4,0.2c-0.2,0-0.3-0.1-0.3-0.2
				c-0.1-0.1-0.1-0.3-0.1-0.4c0-0.2,0-0.3,0-0.5c0-0.2,0.1-0.4,0.2-0.5c0.1-0.1,0.3-0.1,0.4-0.1c0.2,0,0.3,0.1,0.4,0.2
				c0.1,0.1,0.1,0.3,0.1,0.5c0,0.5,0,0.8,0,1.3c0,0.4-0.2,0.7-0.7,0.6C156.5,86.9,156.4,86.9,156.3,86.8z M157,85.4
				c0-0.2,0-0.3,0-0.5c0-0.2-0.1-0.3-0.2-0.3c-0.1,0-0.2,0.1-0.2,0.2c0,0.2,0,0.3,0,0.5c0,0.2,0.1,0.3,0.2,0.3
				C157,85.7,157,85.6,157,85.4z"/>
			<path class="st1" d="M158.5,84.7c-0.3,0-0.5,0-0.8,0c0-0.1,0-0.2,0-0.4c0.5,0,0.7,0,1.1,0c0,0.1,0,0.2,0,0.3
				c-0.2,0.9-0.3,1.3-0.5,2.2c-0.2,0-0.3,0-0.5,0C158.2,86.1,158.3,85.6,158.5,84.7z"/>
			<path class="st1" d="M159.5,86.7c-0.1-0.1-0.2-0.2-0.2-0.5c-0.1-0.5-0.1-0.8-0.1-1.3c0-0.4,0.1-0.7,0.5-0.7c0.2,0,0.3,0,0.4,0.1
				c0.1,0.1,0.2,0.2,0.2,0.4c0,0,0,0,0,0c-0.1,0-0.2,0-0.4,0.1c0,0,0,0,0-0.1c0-0.2-0.1-0.2-0.2-0.2c-0.1,0-0.1,0-0.2,0.1
				c0,0.1,0,0.1,0,0.3c0,0.2,0,0.3,0.1,0.5c0,0,0,0,0,0c0.1-0.2,0.2-0.2,0.3-0.3c0.1,0,0.3,0,0.4,0.1c0.1,0.1,0.2,0.2,0.2,0.4
				c0,0.2,0.1,0.3,0.1,0.4c0,0.2,0,0.4-0.1,0.5c-0.1,0.1-0.3,0.2-0.5,0.2C159.8,86.8,159.6,86.8,159.5,86.7z M160.2,86.2
				c0-0.2,0-0.3-0.1-0.4c0-0.2-0.1-0.2-0.3-0.2c-0.1,0-0.2,0.1-0.2,0.3c0,0.2,0,0.3,0.1,0.4c0,0.2,0.1,0.2,0.3,0.2
				C160.1,86.4,160.2,86.3,160.2,86.2z"/>
		</g>
	</g>
	<path class="st1" d="M157.5,42.9c-12.5,0-22.7,10.2-22.7,22.7s10.2,22.7,22.7,22.7c12.5,0,22.7-10.2,22.7-22.7S170,42.9,157.5,42.9
		z M157.5,87.7c-12.1,0-22-9.8-22-22s9.8-22,22-22c12.1,0,22,9.8,22,22S169.6,87.7,157.5,87.7z"/>
</g>
</svg>
